<svg id="logo-46" class="gradient" width="190" height="80" viewBox="0 0 123 61" fill="none" xmlns="http://www.w3.org/2000/svg">
    <path d="M-6.39719e-07 14.5C6.0374e-08 6.49187 6.49187 1.6959e-06 14.5 2.39599e-06C18.8417 2.77556e-06 22.7378 1.90824 25.3952 4.93177C30.2168 10.345 34.2038 10.0602 38.4379 6.06395C40.5154 4.10244 43.3173 2.9 46.4 2.9C52.8065 2.90001 58 8.0935 58 14.5C58 20.9065 52.8065 26.1 46.4 26.1C43.3173 26.1 40.5154 24.8975 38.4379 22.936C34.2048 18.9407 30.2187 18.655 25.3987 24.0642C22.7412 27.0901 18.8436 29 14.5 29C6.49187 29 -1.33981e-06 22.5081 -6.39719e-07 14.5Z" fill="#F2F5FA"></path>
    <path d="M-6.39719e-07 14.5C6.0374e-08 6.49187 6.49187 1.6959e-06 14.5 2.39599e-06C18.8417 2.77556e-06 22.7378 1.90824 25.3952 4.93177C30.2168 10.345 34.2038 10.0602 38.4379 6.06395C40.5154 4.10244 43.3173 2.9 46.4 2.9C52.8065 2.90001 58 8.0935 58 14.5C58 20.9065 52.8065 26.1 46.4 26.1C43.3173 26.1 40.5154 24.8975 38.4379 22.936C34.2048 18.9407 30.2187 18.655 25.3987 24.0642C22.7412 27.0901 18.8436 29 14.5 29C6.49187 29 -1.33981e-06 22.5081 -6.39719e-07 14.5Z" fill="url(#paint0_linear_1422_596)"></path>
    <path d="M-6.39719e-07 14.5C6.0374e-08 6.49187 6.49187 1.6959e-06 14.5 2.39599e-06C18.8417 2.77556e-06 22.7378 1.90824 25.3952 4.93177C30.2168 10.345 34.2038 10.0602 38.4379 6.06395C40.5154 4.10244 43.3173 2.9 46.4 2.9C52.8065 2.90001 58 8.0935 58 14.5C58 20.9065 52.8065 26.1 46.4 26.1C43.3173 26.1 40.5154 24.8975 38.4379 22.936C34.2048 18.9407 30.2187 18.655 25.3987 24.0642C22.7412 27.0901 18.8436 29 14.5 29C6.49187 29 -1.33981e-06 22.5081 -6.39719e-07 14.5Z" fill="url(#paint1_linear_1422_596)"></path>
    <path d="M-6.39719e-07 14.5C6.0374e-08 6.49187 6.49187 1.6959e-06 14.5 2.39599e-06C18.8417 2.77556e-06 22.7378 1.90824 25.3952 4.93177C30.2168 10.345 34.2038 10.0602 38.4379 6.06395C40.5154 4.10244 43.3173 2.9 46.4 2.9C52.8065 2.90001 58 8.0935 58 14.5C58 20.9065 52.8065 26.1 46.4 26.1C43.3173 26.1 40.5154 24.8975 38.4379 22.936C34.2048 18.9407 30.2187 18.655 25.3987 24.0642C22.7412 27.0901 18.8436 29 14.5 29C6.49187 29 -1.33981e-06 22.5081 -6.39719e-07 14.5Z" fill="url(#paint2_radial_1422_596)"></path>
    <path d="M-6.39719e-07 14.5C6.0374e-08 6.49187 6.49187 1.6959e-06 14.5 2.39599e-06C18.8417 2.77556e-06 22.7378 1.90824 25.3952 4.93177C30.2168 10.345 34.2038 10.0602 38.4379 6.06395C40.5154 4.10244 43.3173 2.9 46.4 2.9C52.8065 2.90001 58 8.0935 58 14.5C58 20.9065 52.8065 26.1 46.4 26.1C43.3173 26.1 40.5154 24.8975 38.4379 22.936C34.2048 18.9407 30.2187 18.655 25.3987 24.0642C22.7412 27.0901 18.8436 29 14.5 29C6.49187 29 -1.33981e-06 22.5081 -6.39719e-07 14.5Z" fill="url(#paint4_radial_1422_596)"></path>

    <!-- Add Text in Baskerville Font -->
    <text x="2" y="52" font-family="'Baskerville', serif" font-size="20" fill="#4845D2" font-weight="700">Budget-Buddy</text>

    <defs>
        <linearGradient id="paint0_linear_1422_596" x1="43.6961" y1="21.7069" x2="10.3036" y2="-4.24328" gradientUnits="userSpaceOnUse">
            <stop class="ccustom" stop-color="#FF557E"></stop>
            <stop class="ccompli1" offset="0.841052" stop-color="#FF5555" stop-opacity="0"></stop>
        </linearGradient>
        <linearGradient id="paint1_linear_1422_596" x1="14.5023" y1="27.0553" x2="23.4238" y2="-3.84997" gradientUnits="userSpaceOnUse">
            <stop class="ccompli1" stop-color="#58CCDC"></stop>
            <stop class="ccompli1" offset="1" stop-color="#58CCDC" stop-opacity="0"></stop>
        </linearGradient>
    </defs>
</svg>
